# AST/ASF file generated using VICON BodyLanguage
# -----------------------------------------------
:version 1.10
:name VICON
:units
  mass 1.0
  length 0.45
  angle deg
:documentation
   .ast/.asf automatically generated from VICON data using
   VICON BodyBuilder and BodyLanguage model FoxedUp or BRILLIANT.MOD
:root
   order TX TY TZ RX RY RZ
   axis XYZ
   position 0 0 0  
   orientation 0 0 0 
:bonedata
  begin
     id 1 
     name lhipjoint
     direction 0.535335 -0.74333 0.401095 
     length 2.04549 
     axis 0 0 0  XYZ
  end
  begin
     id 2 
     name lfemur
     direction 0.34202 -0.939693 0  
     length 6.95643  
     axis 0 0 20  XYZ
    dof rx ry rz
    limits (-160.0 20.0)
           (-70.0 70.0)
           (-60.0 70.0)
  end
  begin
     id 3 
     name ltibia
     direction 0.34192 -0.939729 0   
     length 5.55969   
     axis 0 0 20   XYZ
    dof rx
    limits (-10.0 170.0)
  end
  begin
     id 4 
     name lfoot
     direction 0.216943 -0.596046 0.773088   
     length 2.27918   
     axis -90 7.62852e-016 20   XYZ
    dof rx rz
    limits (-45.0 90.0)
           (-70.0 20.0)
  end
  begin
     id 5 
     name ltoes
     direction 1.53519e-011 -4.21748e-011 1   
     length 1.05562   
     axis -90 7.62852e-016 20   XYZ
    dof rx
    limits (-90.0 20.0)
  end
  begin
     id 6 
     name rhipjoint
     direction -0.576368 -0.719173 0.38806   
     length 2.1142  
     axis 0 0 0  XYZ 
  end
  begin
     id 7 
     name rfemur
     direction -0.34202 -0.939693 0   
     length 7.07928   
     axis 0 0 -20   XYZ
    dof rx ry rz
    limits (-160.0 20.0)
           (-70.0 70.0)
           (-70.0 60.0)
  end
  begin
     id 8 
     name rtibia
     direction -0.34202 -0.939693 0   
     length 5.79974   
     axis 0 0 -20   XYZ
    dof rx
    limits (-10.0 170.0)
 end
 begin
     id 9 
     name rfoot
     direction -0.189288 -0.520065 0.832888   
     length 2.42173  
     axis -90 -7.62852e-016 -20   XYZ
    dof rx rz
    limits (-45.0 90.0)
           (-20.0 70.0)
  end
  begin
     id 10 
     name rtoes
     direction -1.53574e-011 -4.21658e-011 1   
     length 1.14469   
     axis -90 -7.62852e-016 -20   XYZ
    dof rx
    limits (-90.0 20.0)
  end
  begin
     id 11 
     name lowerback
     direction -0.00135702 0.993803 0.111144   
     length 1.91308   
     axis 0 0 0   XYZ
    dof rx ry rz
    limits (-20.0 45.0)
           (-30.0 30.0)
           (-30.0 30.0)
  end
  begin
     id 12 
     name upperback
     direction -0.0056745 0.999813 0.0184631   
     length 1.9212   
     axis 0 0 0   XYZ
    dof rx ry rz
    limits (-20.0 45.0)
           (-30.0 30.0)
           (-30.0 30.0)
  end
  begin
     id 13 
     name thorax
     direction -0.00733434 0.999426 -0.0330788   
     length 1.94196   
     axis 0 0 0   XYZ
    dof rx ry rz
    limits (-20.0 45.0)
           (-30.0 30.0)
           (-30.0 30.0)
  end
  begin
     id 14 
     name lowerneck
     direction 0.0563074 0.996944 -0.0541571   
     length 2.34257   
     axis 0 0 0   XYZ
    dof rx ry rz
    limits (-20.0 45.0)
           (-30.0 30.0)
           (-30.0 30.0)
  end
  begin
     id 15 
     name upperneck
     direction -0.0544519 0.976166 -0.210085   
     length 2.32506   
     axis 0 0 0   XYZ
    dof rx ry rz
    limits (-20.0 45.0)
           (-30.0 30.0)
           (-30.0 30.0)
  end
  begin
     id 16
     name head
     direction -0.0226035 0.997615 -0.0652205  
     length 2.3648  
     axis 0 0 0   XYZ
    dof rx ry rz
    limits (-20.0 45.0)
           (-30.0 30.0)
           (-30.0 30.0)
  end
  begin
     id 17 
     name lclavicle
     direction 0.92109 0.381297 -0.0787716  
     length 4.0487  
     axis 0 0 0   XYZ
    dof ry rz
    limits (-20.0 10.0)
           (0.0 20.0)
  end
  begin
     id 18 
     name lhumerus
     direction 1 -4.48986e-011 3.56724e-027   
     length 4.94991   
     axis 180 -30 -90   XYZ
    dof rx ry rz
    limits (-60.0 90.0)
           (-90.0 90.0)
           (-90.0 90.0)
  end
  begin
     id 19
     name lradius
     direction 1 -4.48981e-011 8.62147e-027   
     length 2.7606   
     axis 180 -30 -90   XYZ
    dof rx
    limits (-10.0 170.0)
  end
  begin
     id 20
     name lwrist
     direction 1 -4.48989e-011 1.59799e-026   
     length 1.3803   
     axis -1.17785e-014 90 90   XYZ
    dof ry
    limits (-180.0 0.0)
 end
  begin
     id 21 
     name lhand
     direction 1 -4.48896e-011 3.19599e-026   
     length 0.843936   
     axis -2.03931e-014 90 90   XYZ
    dof rx rz
    limits (-90.0 90.0)
           (-45.0 45.0)
  end
  begin
     id 22 
     name lfingers
     direction 1 -4.48887e-011 6.39197e-026   
     length 0.680403   
     axis -4.07862e-014 90 90   XYZ
    dof rx
    limits (0.0 90.0)
  end
  begin
     id 23
     name lthumb
     direction 0.707107 -6.348e-011 0.707107   
     length 0.976926   
     axis -90 45 2.85299e-015   XYZ
    dof rx rz
    limits (-45.0 45.0)
           (-45.0 45.0)
  end
  begin
     id 24 
     name rclavicle
     direction -0.951104 0.307692 -0.026953   
     length 4.21801  
     axis 0 0 0   XYZ 
    dof ry rz
    limits (-10.0 20.0)
           (-20.0 0.0)
  end
  begin
     id 25 
     name rhumerus
     direction -1 -4.4896e-011 -1.8171e-018  
     length 4.32982   
     axis 180 30 90   XYZ
    dof rx ry rz
    limits (-90.0 60.0)
           (-90.0 90.0)
           (-90.0 90.0)
  end
  begin
     id 26 
     name rradius
     direction -1 -4.48959e-011 8.25165e-027   
     length 3.20057   
     axis 180 30 90   XYZ
    dof rx
    limits (-10.0 170.0)
  end
  begin
     id 27 
     name rwrist
     direction -1 -4.48997e-011 1.59799e-026   
     length 1.60029   
     axis -1.17785e-014 -90 -90   XYZ
    dof ry
    limits (-180.0 0.0)
  end
  begin
     id 28
     name rhand
     direction -1 -4.49023e-011 3.19599e-026   
     length 0.960433   
     axis -2.03931e-014 -90 -90   XYZ
    dof rx rz
    limits (-90.0 90.0)
           (-45.0 45.0)
  end
  begin
     id 29
     name rfingers
     direction -1 -4.48802e-011 6.39197e-026   
     length 0.774326   
     axis -4.07862e-014 -90 -90   XYZ
    dof rx
    limits (0.0 90.0)
  end
  begin
     id 30
     name rthumb
     direction -0.707107 -6.34876e-011 0.707107   
     length 1.11178   
     axis -90 -45 -2.85299e-015   XYZ
    dof rx rz
    limits (-45.0 45.0)
           (-45.0 45.0)
  end
:hierarchy
  begin
    root lhipjoint rhipjoint lowerback
    lhipjoint lfemur
    lfemur ltibia
    ltibia lfoot
    lfoot ltoes
    rhipjoint rfemur
    rfemur rtibia
    rtibia rfoot
    rfoot rtoes
    lowerback upperback
    upperback thorax
    thorax lowerneck lclavicle rclavicle
    lowerneck upperneck
    upperneck head
    lclavicle lhumerus
    lhumerus lradius
    lradius lwrist
    lwrist lhand lthumb
    lhand lfingers
    rclavicle rhumerus
    rhumerus rradius
    rradius rwrist
    rwrist rhand rthumb
    rhand rfingers
end

#!OML:ASF C:\KaitlinTest1\Natural Motions\Nikki\Session 2\Nikki.ASF
:FULLY-SPECIFIED
:DEGREES
479
root -13.7511 16.7241 5.07997 -322.849 92.8718 -332.036
lowerback -13.0268 -1.27566 2.50825
upperback -5.21478 -1.73684 -0.57729
thorax 1.7271 -0.797836 -2.25711
lowerneck -9.62236 -13.2421 -8.23124
upperneck 4.98584 41.3105 5.59019
head 166.664 57.7562 -38.4528
rclavicle -9.54166e-015 -4.77083e-015
rhumerus -46.1934 -44.4839 -62.3624
rradius 10.3627
rwrist 47.2362
rhand -37.1625 0.620394
rfingers 7.12502
rthumb -10.2314 -29.1108
lclavicle -9.54166e-015 -4.77083e-015
lhumerus -38.9823 22.2229 76.5604
lradius 19.4629
lwrist -45.3158
lhand -30.6765 3.12343
lfingers 7.12502
lthumb -3.97076 33.0662
rfemur -8.56543 -18.9857 21.1145
rtibia 12.0628
rfoot -10.2993 13.0164
rtoes -9.22361e-014
lfemur -14.7853 19.7271 -18.6545
ltibia 14.7116
lfoot -2.35051 -20.1221
ltoes -7.95139e-014
480
root -13.7248 16.7247 5.06999 -320.559 92.7335 -329.781
lowerback -13.45 -1.17723 2.67035
upperback -5.13296 -1.63681 -0.602313
thorax 2.03999 -0.743525 -2.37309
lowerneck -9.63708 -13.2499 -8.24186
upperneck 4.98112 41.303 5.57622
head 166.609 57.7788 -38.4917
rclavicle 9.56651e-015 2.38542e-015
rhumerus -45.4952 -43.1321 -63.6986
rradius 10.6446
rwrist 45.4188
rhand -36.9475 0.236132
rfingers 7.12502
rthumb -10.024 -29.5052
lclavicle 9.56651e-015 2.38542e-015
lhumerus -39.167 22.4432 76.3726
lradius 19.3416
lwrist -45.803
lhand -30.6729 2.94678
lfingers 7.12502
lthumb -3.96729 32.8896
rfemur -8.49007 -19.5783 21.0382
rtibia 12.0109
rfoot -10.4002 13.8056
rtoes 4.53229e-014
lfemur -14.6197 19.9027 -18.6678
ltibia 14.7107
lfoot -2.43482 -20.1257
ltoes 3.18055e-015
481
root -13.7539 16.7243 5.07756 -323.794 92.8786 -332.973
lowerback -12.996 -1.27394 2.47476
upperback -5.18862 -1.73171 -0.583849
thorax 1.73921 -0.795279 -2.24396
lowerneck -9.66639 -13.2737 -8.24468
upperneck 4.94475 41.1954 5.53525
head 166.474 57.9025 -38.5721
rclavicle 2.88238e-015 1.59028e-015
rhumerus -46.9663 -44.8251 -61.4375
rradius 10.2859
rwrist 47.3743
rhand -37.0128 0.54414
rfingers 7.12502
rthumb -10.087 -29.1941
lclavicle 2.88238e-015 1.59028e-015
lhumerus -39.3067 22.7234 76.1536
lradius 19.1932
lwrist -46.4272
lhand -30.4888 2.9537
lfingers 7.12502
lthumb -3.78954 32.8998
rfemur -8.5038 -18.9709 21.0475
rtibia 11.9461
rfoot -10.1965 12.9828
rtoes -1.11319e-014
lfemur -14.7829 19.6941 -18.709
ltibia 14.7258
lfoot -2.35992 -20.1214
ltoes -3.81667e-014
482
root -13.7314 16.7242 5.06837 -321.648 92.7655 -330.831
lowerback -13.3264 -1.18434 2.62249
upperback -5.10759 -1.64042 -0.599264
thorax 2.00162 -0.746484 -2.3406
lowerneck -9.71429 -13.2508 -8.27727
upperneck 4.96707 41.3689 5.57555
head 166.71 57.7055 -38.4542
rclavicle 9.29318e-015 -2.5842e-015
rhumerus -46.1838 -43.4948 -62.8758
rradius 10.5826
rwrist 45.2963
rhand -36.7965 0.0170878
rfingers 7.12502
rthumb -9.87834 -29.7312
lclavicle 9.29318e-015 -2.5842e-015
lhumerus -39.4638 22.8338 76.0439
lradius 19.1042
lwrist -46.8077
lhand -30.5629 2.84824
lfingers 7.12502
lthumb -3.86102 32.793
rfemur -8.38521 -19.474 20.9919
rtibia 11.8544
rfoot -10.2857 13.6589
rtoes 1.59028e-015
lfemur -14.6495 19.8487 -18.6985
ltibia 14.7697
lfoot -2.44064 -20.1211
ltoes 5.88403e-014
483
root -13.7291 16.7265 5.0658 -320.98 92.7658 -330.205
lowerback -13.4487 -1.16226 2.67205
upperback -5.06346 -1.62201 -0.599152
thorax 2.11314 -0.735769 -2.36968
lowerneck -9.78413 -13.2869 -8.24926
upperneck 4.92096 41.2498 5.52969
head 166.511 57.8502 -38.5839
rclavicle 2.28602e-015 -4.37326e-015
rhumerus -45.877 -42.9455 -63.4728
rradius 10.6893
rwrist 44.146
rhand -36.7056 -0.16579
rfingers 7.12502
rthumb -9.79065 -29.9182
lclavicle 2.28602e-015 -4.37326e-015
lhumerus -39.5809 23.0871 75.8577
lradius 19.0124
lwrist -47.4144
lhand -30.4645 2.88447
lfingers 7.12502
lthumb -3.76605 32.8309
rfemur -8.43004 -19.5967 21.0245
rtibia 11.8304
rfoot -10.2797 13.8057
rtoes -2.46493e-014
lfemur -14.7059 19.915 -18.7107
ltibia 14.801
lfoot -2.5517 -20.1525
ltoes 1.74931e-014
484
root -13.7318 16.7248 5.06612 -320.997 92.8048 -330.174
lowerback -13.3334 -1.17557 2.66736
upperback -5.06939 -1.63771 -0.580674
thorax 2.04469 -0.745111 -2.34692
lowerneck -9.79457 -13.2946 -8.25514
upperneck 4.91798 41.2381 5.51535
head 166.435 57.8863 -38.6356
rclavicle 1.17034e-014 -2.38542e-015
rhumerus -45.9732 -42.7777 -63.4866
rradius 10.7352
rwrist 43.5572
rhand -36.5441 -0.0756945
rfingers 7.12502
rthumb -9.63477 -29.8354
lclavicle 1.17034e-014 -2.38542e-015
lhumerus -39.4309 21.6716 76.6949
lradius 19.0058
lwrist -46.1354
lhand -30.3727 3.18283
lfingers 7.12502
lthumb -3.67734 33.1309
rfemur -8.33842 -19.5917 21.0431
rtibia 11.7394
rfoot -10.2529 13.7647
rtoes -3.10104e-014
lfemur -14.6943 19.9454 -18.678
ltibia 14.8536
lfoot -2.57915 -20.2212
ltoes -7.31528e-014
485
root -13.7351 16.7244 5.06583 -321.667 92.8275 -330.826
lowerback -13.2772 -1.18384 2.64357
upperback -5.04588 -1.64625 -0.588123
thorax 2.03914 -0.749889 -2.34142
lowerneck -9.86484 -13.3095 -8.2541
upperneck 4.89882 41.245 5.50195
head 166.411 57.8721 -38.6649
rclavicle 2.62893e-014 1.11319e-014
rhumerus -45.5138 -41.9624 -64.373
rradius 10.951
rwrist 42.0702
rhand -36.2783 -0.426081
rfingers 7.12502
rthumb -9.37837 -30.1974
lclavicle 2.62893e-014 1.11319e-014
lhumerus -39.464 21.5425 76.7492
lradius 18.8226
lwrist -46.0002
lhand -30.6326 3.03974
lfingers 7.12502
lthumb -3.92835 32.9833
rfemur -8.32355 -19.5868 21.0247
rtibia 11.7345
rfoot -10.2242 13.7056
rtoes 8.90555e-014
lfemur -14.6969 19.928 -18.6927
ltibia 14.8696
lfoot -2.46556 -20.2569
ltoes 4.77083e-014
486
root -13.74 16.725 5.06505 -322.469 92.8375 -331.651
lowerback -13.238 -1.1832 2.6095
upperback -5.03992 -1.64025 -0.611128
thorax 2.02504 -0.747282 -2.34442
lowerneck -9.93516 -13.3306 -8.2249
upperneck 4.89167 41.2826 5.51314
head 166.424 57.8385 -38.6861
rclavicle 8.72168e-015 7.95139e-016
rhumerus -44.9939 -41.0374 -65.4238
rradius 11.2024
rwrist 40.2434
rhand -36.0688 -0.652489
rfingers 7.12502
rthumb -9.17617 -30.4328
lclavicle 8.72168e-015 7.95139e-016
lhumerus -39.9073 23.44 75.4589
lradius 18.6033
lwrist -48.5527
lhand -30.6114 2.70586
lfingers 7.12502
lthumb -3.90786 32.6498
rfemur -8.37611 -19.5579 21.0023
rtibia 11.7542
rfoot -10.2602 13.6727
rtoes -8.74653e-015
lfemur -14.7634 19.9454 -18.7512
ltibia 14.8723
lfoot -2.53722 -20.2895
ltoes -7.4743e-014
